<svg width="520" height="520" viewBox="0 0 520 520" fill="none" xmlns="http://www.w3.org/2000/svg">
<path d="M260 520C403.594 520 520 403.594 520 260C520 116.406 403.594 0 260 0C116.406 0 0 116.406 0 260C0 403.594 116.406 520 260 520Z" fill="#282828"/>
<path d="M166.281 149H192.479V370.195H166.281V358.564C159.682 367.789 146.683 372 136.284 372C112.286 372 90.4883 353.35 90.4883 323.269C90.4883 293.188 112.286 274.537 136.284 274.537C147.083 274.537 159.682 278.548 166.281 287.974V149ZM141.284 347.534C154.083 347.534 165.482 337.507 165.482 323.269C165.482 308.83 153.483 299.204 141.284 299.204C128.085 299.204 117.086 309.431 117.086 323.269C117.086 336.905 128.085 347.534 141.284 347.534Z" fill="white"/>
<path d="M275.272 149H301.47V370.195H275.272V358.564C268.673 367.789 255.674 372 245.275 372C221.277 372 199.479 353.35 199.479 323.269C199.479 293.188 221.277 274.537 245.275 274.537C256.074 274.537 268.673 278.548 275.272 287.974V149ZM250.275 347.534C263.073 347.534 274.472 337.507 274.472 323.269C274.472 308.83 262.473 299.204 250.275 299.204C237.076 299.204 226.077 309.431 226.077 323.269C226.077 336.905 237.076 347.534 250.275 347.534Z" fill="white"/>
<path fill-rule="evenodd" clip-rule="evenodd" d="M409.864 371C421.251 371 431.393 362.079 431.393 349.411C431.393 336.564 420.718 328 409.864 328C398.121 328 388.335 337.1 388.335 349.411C388.335 361.544 398.121 371 409.864 371Z" fill="#FF6101"/>
<path fill-rule="evenodd" clip-rule="evenodd" d="M336.686 307C336.147 306.028 335.877 304.978 335.877 303.851C335.877 303.705 335.881 303.56 335.888 303.417C335.881 303.56 335.877 303.705 335.877 303.851C335.877 304.978 336.147 306.028 336.686 307ZM308.47 354.098C308.47 355.144 308.889 356.065 309.567 356.829C313.336 361.162 318.354 364.824 324.571 367.84C330.868 370.895 337.774 372.413 345.263 372.413C354.593 372.413 362.909 369.763 370.158 364.452C377.56 359.073 381.335 351.955 381.335 343.201C381.335 337.816 380.207 333.093 377.885 329.092C375.607 325.108 372.714 322.12 369.18 320.219C365.865 318.379 362.255 316.727 358.35 315.262C354.516 313.741 350.905 312.577 347.521 311.776C344.426 310.972 341.912 309.843 339.937 308.421C338.134 307.023 337.383 305.512 337.383 303.851C337.383 301.976 338.095 300.562 339.572 299.465L339.579 299.46C341.2 298.245 343.244 297.596 345.805 297.596C350.041 297.596 355.648 299.734 362.717 304.362C363.684 305.088 364.74 305.623 365.841 305.672C367.07 305.726 368.087 305.169 368.821 304.251L368.832 304.238L375.871 295.032L375.876 295.025C376.54 294.175 376.998 293.216 377.046 292.166C377.097 291.087 376.705 290.113 376.041 289.283L376.028 289.266L376.013 289.249C367.941 279.738 357.158 275 343.819 275C334.844 275 327.099 277.595 320.668 282.829C314.157 288.127 310.907 295.245 310.907 304.032C310.907 309.968 312.492 315.063 315.738 319.218L315.746 319.227C318.901 323.203 322.736 326.187 327.243 328.155L327.25 328.158C331.623 330.041 335.968 331.682 340.287 333.081L340.296 333.084L340.305 333.087C344.492 334.384 348.015 335.904 350.897 337.633L350.906 337.638L350.916 337.644C353.641 339.225 354.678 340.97 354.678 342.84C354.678 344.913 353.921 346.307 352.452 347.264C350.87 348.293 348.307 348.915 344.541 348.915C338.65 348.915 331.435 346.326 322.837 340.878C321.872 340.156 320.82 339.624 319.722 339.575C318.493 339.521 317.476 340.078 316.742 340.996L316.714 341.031L309.465 351.27L309.462 351.275C308.868 352.129 308.47 353.08 308.47 354.098Z" fill="white"/>
</svg>
